<?xml version="1.0" encoding="UTF-8"?>
<svg id="Calque_1" data-name="Calque 1" xmlns="http://www.w3.org/2000/svg" viewBox="0 0 205.5 205.5">
  <defs>
    <style>
      .cls-1 {
        fill: #007e3a;
      }

      .cls-2, .cls-3 {
        fill: #fff;
      }

      .cls-4 {
        fill: none;
      }

      .cls-4, .cls-3 {
        stroke: #007e3a;
        stroke-miterlimit: 10;
      }
    </style>
  </defs>
  <circle class="cls-3" cx="102.75" cy="102.75" r="102.23"/>
  <g>
    <path class="cls-1" d="M111.11,47.06c-30.71-4.61-59.44,16.63-64.05,47.33-4.61,30.71,16.63,59.44,47.33,64.05,30.71,4.61,59.44-16.63,64.05-47.33,4.61-30.71-16.63-59.44-47.33-64.05ZM94.55,157.36c-30.11-4.52-50.93-32.69-46.42-62.8,4.52-30.11,32.69-50.93,62.8-46.41,30.11,4.52,50.93,32.69,46.41,62.8-4.52,30.11-32.69,50.93-62.8,46.41Z"/>
    <path class="cls-1" d="M154.41,110.5c4.27-28.49-15.42-55.14-43.91-59.41s-55.14,15.42-59.41,43.91c-.53,3.54-.69,7.06-.51,10.5-.02.08-.03.16,0,.24,0,.03.02.05.03.07.34,5.75,1.63,11.31,3.73,16.5,0,0,0,.02,0,.03.02.08.05.15.09.21,6.77,16.44,21.75,29.04,40.57,31.86,4.65.7,9.25.75,13.71.23.06.03.12.06.19.07.02,0,.04,0,.07,0,.15,0,.3-.06.4-.16,13.27-1.7,25.27-8.45,33.63-18.53.11-.05.21-.12.27-.24.03-.05.04-.11.05-.17,3.52-4.33,6.38-9.25,8.39-14.64.02-.02.04-.04.05-.06.04-.07.06-.15.06-.23,1.18-3.24,2.06-6.65,2.59-10.19Z"/>
  </g>
  <circle class="cls-4" cx="102.75" cy="102.75" r="97.06"/>
  <g>
    <g>
      <path class="cls-1" d="M25.65,94.82l-.05-.02c-5.24-1.59-8.39-6.68-6.74-12.11,1.01-3.34,2.77-4.98,4.95-6.12l2.23,3.38c-1.7.98-2.91,2.13-3.45,3.9-.9,2.98,1.03,5.91,4.19,6.87l.05.02c3.16.96,6.43-.35,7.34-3.38.61-2.02.14-3.52-.75-5.31l3.36-1.69c1.48,2.43,2.13,4.84,1.1,8.25-1.57,5.21-6.93,7.81-12.22,6.21Z"/>
      <path class="cls-1" d="M24.53,68.56l6.86-12.15,3.28,1.85-4.87,8.63,3.4,1.92,4.29-7.59,3.28,1.85-4.29,7.59,3.52,1.99,4.94-8.74,3.28,1.85-6.92,12.26-16.77-9.47Z"/>
      <path class="cls-1" d="M36.71,49.22l5.92-6.03c1.65-1.68,3.41-2.5,5.17-2.48,1.49.02,2.96.68,4.25,1.95l.04.04c2.22,2.18,2.48,4.69,1.48,7.01l8.07,1.59-3.33,3.39-7.17-1.49-.04.04-2.2,2.24,4.4,4.32-2.85,2.9-13.74-13.49ZM49.13,49.93c1.39-1.41,1.4-2.99.24-4.13l-.04-.04c-1.3-1.27-2.81-1.06-4.2.35l-2.83,2.88,3.95,3.87,2.89-2.94Z"/>
      <path class="cls-1" d="M60.74,34.11l-4.93,2.71-1.88-3.42,13.43-7.38,1.88,3.42-4.93,2.71,7.39,13.45-3.57,1.96-7.39-13.45Z"/>
      <path class="cls-1" d="M74.83,23.6l3.91-1.13,5.36,18.5-3.91,1.13-5.36-18.5Z"/>
      <path class="cls-1" d="M87.51,20.45l14.04-1.04.28,3.84-9.99.74.3,4.09,8.8-.65.28,3.84-8.8.65.55,7.44-4.06.3-1.42-19.21Z"/>
      <path class="cls-1" d="M108.98,20.1l4.04.45-2.12,19.14-4.04-.45,2.12-19.14Z"/>
      <path class="cls-1" d="M118,30.79l.02-.05c1.59-5.24,6.69-8.38,12.12-6.73,3.34,1.01,4.98,2.78,6.11,4.96l-3.38,2.22c-.97-1.7-2.12-2.92-3.89-3.45-2.98-.91-5.92,1.02-6.88,4.18l-.02.05c-.96,3.16.34,6.43,3.37,7.35,2.02.61,3.52.15,5.31-.75l1.69,3.36c-2.44,1.47-4.84,2.12-8.25,1.09-5.21-1.58-7.8-6.94-6.2-12.23Z"/>
      <path class="cls-1" d="M150.58,33.75l3.12,2.09-4.22,20.52-3.53-2.37,1-4.53-6.49-4.36-3.81,2.65-3.44-2.31,17.38-11.69ZM147.82,45.54l1.44-6.55-5.52,3.82,4.08,2.74Z"/>
      <path class="cls-1" d="M164.07,50.31l-3.69-4.25,2.95-2.56,10.04,11.58-2.95,2.56-3.69-4.25-11.6,10.06-2.67-3.07,11.6-10.06Z"/>
      <path class="cls-1" d="M177.28,61.7l1.97,3.56-16.84,9.34-1.97-3.56,16.84-9.34Z"/>
      <path class="cls-1" d="M173.97,75.41l.05-.02c5.26-1.5,10.71,1.26,12.28,6.74,1.56,5.49-1.57,10.64-6.84,12.14l-.05.02c-5.26,1.5-10.71-1.26-12.28-6.75s1.57-10.64,6.84-12.14ZM178.19,90.23l.05-.02c3.17-.91,5.18-3.9,4.28-7.05-.9-3.15-4.11-4.6-7.29-3.69l-.05.02c-3.17.91-5.18,3.9-4.28,7.05.9,3.15,4.11,4.6,7.29,3.69Z"/>
      <path class="cls-1" d="M189.65,100.51l.04,3.75-11.76,8.79,11.86-.13.04,4.02-19.26.21-.04-3.46,12.14-9.09-12.24.13-.04-4.01,19.26-.21Z"/>
    </g>
    <g>
      <path class="cls-1" d="M46.48,134.77l2.32,3.15-11.37,18.62-2.63-3.57,2.58-4.08-4.83-6.56-4.67,1.25-2.56-3.48,21.16-5.32ZM39.62,145.35l3.72-5.92-6.75,1.79,3.03,4.12Z"/>
      <path class="cls-1" d="M45.36,157.24l3.33,2.97-3.05,3.42-3.33-2.97,3.05-3.42Z"/>
      <path class="cls-1" d="M61.82,151.4l7.59,4.46c2.11,1.24,3.39,2.82,3.81,4.6.36,1.51.06,3.16-.9,4.79l-.03.05c-1.64,2.79-4.12,3.7-6.71,3.27l.43,8.56-4.27-2.51-.31-7.63-.05-.03-2.82-1.66-3.25,5.54-3.66-2.15,10.15-17.3ZM64.25,164.12c1.78,1.05,3.38.66,4.24-.8l.03-.05c.96-1.63.36-3.11-1.42-4.16l-3.63-2.13-2.92,4.97,3.7,2.17Z"/>
      <path class="cls-1" d="M73.71,174.9l4.21,1.45-1.49,4.33-4.21-1.45,1.49-4.33Z"/>
      <path class="cls-1" d="M86.71,163.17l8.86,1.18c2.18.29,3.82,1.15,4.76,2.43.75,1.03,1.04,2.19.86,3.56v.06c-.31,2.24-1.62,3.34-3.09,3.95,2.09,1.18,3.28,2.69,2.92,5.36v.06c-.49,3.64-3.57,5.08-7.88,4.5l-9.08-1.21,2.66-19.89ZM93.6,172.27c1.85.25,3.11-.22,3.31-1.7v-.06c.18-1.31-.7-2.18-2.47-2.41l-4.15-.55-.56,4.2,3.87.52ZM93.65,180.43c1.85.25,3.06-.29,3.26-1.76v-.06c.19-1.34-.66-2.29-2.81-2.57l-4.85-.65-.58,4.38,4.99.67Z"/>
      <path class="cls-1" d="M106.62,180.29l4.45-.27.27,4.58-4.45.27-.27-4.58Z"/>
      <path class="cls-1" d="M114.08,164.5l8.51-2.25c2.37-.62,4.39-.42,5.95.53,1.32.81,2.28,2.18,2.77,4.01v.06c.84,3.13-.26,5.53-2.39,7.06l6.38,5.73-4.79,1.26-5.63-5.15h-.05s-3.17.85-3.17.85l1.64,6.21-4.1,1.08-5.12-19.39ZM124.82,171.74c2-.53,2.85-1.94,2.42-3.57v-.05c-.5-1.83-1.97-2.45-3.97-1.92l-4.07,1.07,1.47,5.57,4.15-1.1Z"/>
      <path class="cls-1" d="M139.14,172.62l4-1.96,2.02,4.12-4,1.96-2.02-4.12Z"/>
      <path class="cls-1" d="M139.96,155.05l11.63-8.71,2.35,3.14-8.26,6.18,2.44,3.26,7.27-5.44,2.35,3.14-7.27,5.44,2.52,3.37,8.37-6.27,2.35,3.14-11.75,8.79-12.02-16.06Z"/>
    </g>
  </g>
  <g>
    <path class="cls-2" d="M107.25,70.79c1.64-.73,2.06-3.69,1.3-5.22-.66-1.33-1.62-2.41-2.56-.7-.87,1.58-.58,3.66.48,5.1.21.29.58.5.78.82Z"/>
    <path class="cls-2" d="M99.69,73.5c-.1,3.02,3.08,5.55,6.04,5.16-.2-3.05-3.03-5.4-6.04-5.16Z"/>
    <path class="cls-2" d="M99.24,79.4c-.33,2.87,2.5,4.81,5.15,4.58,1.07-.09.37-1.63.02-2.22-.98-1.7-3.26-2.68-5.17-2.36Z"/>
    <path class="cls-2" d="M108.28,71.59c2.98.76,5.63-1.27,6.17-4.19-2.87-.87-5.94,1.19-6.17,4.19Z"/>
    <path class="cls-2" d="M123.36,76.59c1.85-.07,2.03-6.59-.36-7.26-2.06.89-1.47,7.33.36,7.26Z"/>
    <path class="cls-2" d="M121.38,76.54c.64-3.12-2.24-5.39-5.14-5.46-.07,2.93,2.16,5.38,5.14,5.46Z"/>
    <path class="cls-2" d="M84.79,66.74c2.23-.81-.53-2.86-1.81-3.2-1.13-.3-4.15-.53-4.31,1.06,1.56,1.52,3.87,2.97,6.12,2.15Z"/>
    <path class="cls-2" d="M76.47,68.53c.47.52.64,1,1.29.48.81-.64,1.06-2.01,1.1-2.99.02-.48-.24-.99-.19-1.43-.99-.97-2.15-3.87-3.06-.76-.49,1.68-.33,3.37.87,4.7Z"/>
    <path class="cls-2" d="M93.9,62.41c-2.94-.94-5.75.97-6.13,3.98,2.85.59,5.55-1.1,6.13-3.98Z"/>
    <path class="cls-2" d="M89.93,69.68c-.8,1.88.16,1.94,1.78,1.66,2.03-.35,3.61-2.17,3.83-4.22-1.93-.56-4.82.72-5.61,2.56Z"/>
    <path class="cls-2" d="M101.06,71.47c2.37,1.39,7.32.45,3.94-1.8-.88-.58-1.68-.83-2.74-.84-2.22-.03-3.54,1.27-1.19,2.64Z"/>
    <path class="cls-2" d="M91.8,76.36c2.77.6,5.7-1.61,5.99-4.43-2.74-.52-5.84,1.57-5.99,4.43Z"/>
    <path class="cls-2" d="M107.99,83.47c2.95.73,5.58-1.35,6.16-4.19-2.95-.97-5.91,1.14-6.16,4.19Z"/>
    <path class="cls-2" d="M133.38,96.92c-1.19.02-3.04,1.03-3.71,2.01-.73,1.07,1.9,1.58,2.69,1.62,1.32.06,3.36-.82,4.19-1.85,1.05-1.31-2.24-1.79-3.17-1.78Z"/>
    <path class="cls-2" d="M147.74,103.56c1.08-1.19,1.37-2.54,1.5-4.1-2.79-.12-4.93,2.11-5,4.9-.05,1.85,2.84-.07,3.5-.8Z"/>
    <path class="cls-2" d="M143.45,105.41c.96-2.29.27-4.97-1.89-6.29-.69-.42-1.2-.92-1.46.13-.54,2.16,1.03,5.6,3.35,6.15Z"/>
    <path class="cls-2" d="M136.04,106.9c0,.29.43,1.83.54,1.91.73.58,2.6-1.71,2.85-2.47.47-1.44.37-5.12-1.78-3.41-1.18.94-1.64,2.5-1.61,3.96Z"/>
    <path class="cls-2" d="M130.14,104.69c2.73.77,5.45.23,6.76-2.49-2.14-1.93-6.45-.48-6.76,2.49Z"/>
    <path class="cls-2" d="M128.9,75.32c.76-.87,1-2.14.94-3.27-.02-.31-.55-2.08-.68-2.18-1.01-.81-2.53,1.78-2.71,2.65-.35,1.68.4,5.16,2.45,2.8Z"/>
    <path class="cls-2" d="M122.77,103.93c1.01.83,2.37,1.34,3.69,1.03.23-2.81-2.17-4.9-4.89-4.98-1.97-.06.4,3.29,1.2,3.95Z"/>
    <path class="cls-2" d="M129.04,79.39c-.14,2.79,2.8,4.93,5.48,4.65.52-3.12-2.7-4.99-5.48-4.65Z"/>
    <path class="cls-2" d="M135.19,73.93c-3-.75-5.69,1.2-6.17,4.19,2.81.53,5.87-1.19,6.17-4.19Z"/>
    <path class="cls-2" d="M131.13,94.12c-.9,1.02-.55,1.42.7,1.83,1.79.59,4.51-.04,5.48-1.75.68-1.2-2.18-1.64-3.06-1.62-1.08.02-2.42.74-3.12,1.54Z"/>
    <path class="cls-2" d="M120.88,79.87c-.74,2.42.5,5.14,2.82,6.16,1.29.57,1.5.4,1.48-1.1-.02-2.22-2.11-4.67-4.3-5.06Z"/>
    <path class="cls-2" d="M124.86,99.42c1.95.51,2.45.3,1.72-1.64-.78-2.1-3.13-3.5-5.37-3.16,0,1.91,1.76,4.31,3.64,4.8Z"/>
    <path class="cls-2" d="M128.55,85.49c.84-2.8-.51-6.31-3.71-6.52-.65,2.83.61,6.01,3.71,6.52Z"/>
    <path class="cls-2" d="M87.94,87.55c.66-2-.11-5.24-2.25-5.93-.93,1.9-1.25,3.88-.24,5.82.83,1.6,1.78,2.26,2.49.11Z"/>
    <path class="cls-2" d="M142.46,106.32c-1.41.35-2.26,1.86-3.59,2.53-1.64.83-5.91,2.1-7.44.9-.69-.54-.59-1.57-.89-2.31-.99-2.44-2.34-4.58-2.05-7.37.23-1.3,1.12-3.51,1.14-4.73,0-.29-.02-.62-.37-.37-.12.08-.75,2.25-.89,2.68-1.5,4.64-.2,5.93,1.08,10.05.21.66.83,3.16.77,3.71-.16,1.52-2.52,3.73-3.97,4.17-4.23,1.27-10.77-2.04-15.98-.83-1.46.34-5.06,2.08-5.94,3.24-.65.86-.77,2.74-2.32,2.5,1.17-1.44.55-3.02.67-4.48.18-2.01.6-4.24,1.17-6.29.13-1.05.41-2.07.81-3.07.65-1.64,1.87-2.96,2.52-4.59.05-.12.11-.23.19-.31.49-.87,1.52-1.91,2-2.98.72-1.59,1.04-3.4,1.87-4.99.87-1.66,2.19-2.42,3.27-3.85,2.67-3.52,2.26-8.83,6.43-11.1,2.86-1.56,5.04-.39,8.01-.19-4.39-2.39-9.27-1.53-12.08,2.69-1.26,1.9-2.64,4.32-3.85,6.32-.78,1.29-1.72,5.2-4.01,2.77-.6-.64-1.47-5.32-1.57-6.43-.31-3.18.47-3.94,1.07-6.72.25-1.18.83-4.15-.49-4.82-.17-.09-.83-.22-.89-.18-.14.1.39,2.69.34,3.35-.16,2.16-1.07,4.47-1.2,6.82-.19,3.23,1.03,6.88.79,10.16-.38,5.21-3.51,8.43-5.54,12.79-.29.62-.73,2.76-1.35,2.68-.4-.05-1.32-7.04-1.52-7.95-1.05-4.72-2.43-10.38-4.23-14.83-1.22-3.02-3.41-6.36-4.4-9.34-.89-2.66-1.55-5.51-2.46-8.18-.13-.4-.62-1.99-1.16-1.38-.41.46.38,4.3.58,5.14.15.66,1.14,1.81.15,2.1-.21.06-2.15.16-2.49.14-.66-.03-1.62-.15-2.25-.33-2.03-.59-4.11-2.84-6.24-3.26l5.7,4.21c2.85,1.52,5.42,1.11,7.26,4.26,1.51,2.59,2.25,5.84,3.93,8.39.19.98.3,1.85-.29,2.72-1.94,2.88-6.56-.65-8.83-1.17-.34-.08-1.48-.32-1.43.32.27.43.72.61,1.15.82,1.43.71,4.88,2.09,6.39,2.5,2.22.6,2.98-.58,4.45,1.9,2.7,4.57,2.73,15.52,3.25,20.93l-1.61-2.14c-3.41-3.31-8.41-3.55-12.65-5.28-5.75-2.34-7.92-6.65-11.82-11.07-1.94-2.21-4.31-4.06-5.93-6.54-.17-.26-.5-1.22-.56-1.26-.63-.31-.69.27-.6.82.35,2.21,6.02,7.49,7.68,9.51,1.63,1.97,3.17,4.82,4.86,6.59,1.52,1.58,3.38,1.59.33,3.45-2.82,1.72-4.61.83-7.48.16-.23-.05-.75-.27-.75.1,2.37,1.43,5.57,1.99,8.32,1.62,1.43-.19,2.91-.93,4.51-.91,2.37.03,8.66,2.15,10.52,3.61,2.38,1.88,4.16,6.73,4.23,9.84.58,4.06.31,8.36-.99,12.29-.77,5.59-2.94,13.56-6.23,18.12,3.78.55,7.57,1.07,11.35,1.6-.22-3.32.21-7.46.71-10.05,0-.93-.04-1.86.03-2.79.14-1.8.25-3.61.38-5.41.2-2.87.46-5.73.91-8.57,0-1.23.1-2.5.81-4.28,1.75-4.4,4.27-6.67,9.15-6.92,8.36-.43,6.71,4.76,12.53,7.43,1.55.71,4.75,1.61,6.44,1.91.39.07,3.16.21,3.26.08,1.14-1.32-2.81-.88-3.17-.9-2.63-.19-6.63-2.1-8.05-4.42-.45-.73-1.54-3.21-.49-3.69.76-.35,2.38-.45,3.4-.85,2.71-1.07,2.67-2.59,4.51-3.92,1.95-1.4,5.5-2.22,7.8-3.72.44-.29,3.61-2.74,3.35-3.11Z"/>
    <path class="cls-2" d="M65.19,95.84c-1.71-.05-5.77,1.65-2.54,2.71,1.59.52,4.37.44,5.44-1.05.65-.9-2.24-1.64-2.9-1.66Z"/>
    <path class="cls-2" d="M59.61,92.3c-.31.14-1.88,1.26-1.73,1.54,2.12,1.77,6.19,2.07,7.34-.79-1.59-1.08-3.81-1.56-5.61-.75Z"/>
    <path class="cls-2" d="M126.15,130.5c.02,1.43.85,3.19,2.08,3.92.97-1.76,1.54-3.4.93-5.4-1.15-3.77-3.05-1.11-3.01,1.49Z"/>
    <path class="cls-2" d="M143.98,108.26c-1.82-.42-2.63-.28-1.72,1.64.96,2.04,3.21,3.08,5.43,2.74.06-2.03-1.78-3.93-3.71-4.38Z"/>
    <path class="cls-2" d="M135.85,127.69c-.56,2.65.86,5.65,3.8,5.9.86-2.78-.75-5.79-3.8-5.9Z"/>
    <path class="cls-2" d="M151.47,107.9c-.71-1.53-2.36-2.51-4.04-2.48-4.35.08-.94,3.44,1.51,3.81.95.14,3.19.08,2.53-1.33Z"/>
    <path class="cls-2" d="M131,127.38c-.72,2.84.9,5.72,3.71,6.52.76-2.77-.66-6.16-3.71-6.52Z"/>
    <path class="cls-2" d="M137.42,124.81c-1.41,1.04-1.46,1.77.34,2.3,2.24.65,4.9-.24,5.57-2.54-1.82-1.06-4.2-1.02-5.92.25Z"/>
    <path class="cls-2" d="M83.31,87.42c.93-1.59,1.28-3.66.4-5.35-.97-1.84-1.99-2.17-2.73.07-.72,2.18.03,4.7,2.33,5.28Z"/>
    <path class="cls-2" d="M73.4,96.36c1.75-.06,3.19-1.94,3.39-3.61.06-.53-.06-2.72-.73-2.76-1.93-.12-4.22,4.82-2.66,6.37Z"/>
    <path class="cls-2" d="M72.94,78.64c2.85.42,5.27-1.95,5.39-4.73-2.96-.59-5.4,1.79-5.39,4.73Z"/>
    <path class="cls-2" d="M75.7,84.39c.05,2.67,3.11,4.88,5.71,4.47.16-3.19-2.81-4.92-5.71-4.47Z"/>
    <path class="cls-2" d="M69.81,93.28c.43.2,1.38-.6,1.7-.91,1.67-1.6,2.02-3.64,1.52-5.84-2.96.41-4.92,4.11-3.22,6.74Z"/>
    <path class="cls-2" d="M82.76,95.57c-.24.88-.35,1.38.67,1.42,2.57.1,4.56-2.35,4.51-4.82-2.18-.44-4.61,1.29-5.18,3.4Z"/>
    <path class="cls-2" d="M76.66,97.34c-.28.68-.77,3.52-.31,3.96.36.34,1.66-.69,1.96-.98,1.27-1.22,2.01-3.06,1.48-4.8-.49-1.62-2.73.88-3.12,1.82Z"/>
    <path class="cls-2" d="M84.25,90.55c-.94-.74-2.21-1.12-3.41-1.09-.72.01-2.93.9-3.14,1.53-.15.43,1.06,1.33,1.45,1.48,1.42.56,3.15.48,4.5-.2,1.03-.52,1.64-.89.6-1.71Z"/>
    <path class="cls-2" d="M73.68,111.97c-3.1-.1-5.09,3.19-4.75,6.1,3.08-.13,5.01-3.19,4.75-6.1Z"/>
    <path class="cls-2" d="M71.08,103.81c-.59,2.35.19,4.6,2.18,5.97,1.72-1.5,1.39-4.66.12-6.37-.26-.35-1.19-1.3-1.63-1.08-.09.05-.61,1.23-.67,1.47Z"/>
    <path class="cls-2" d="M64.76,101.77c1.63,1.5,3.78,1.82,5.76.78.28-.15,1.75-1.18,1.6-1.46-2.08-1.44-6.07-1.96-7.36.68Z"/>
    <path class="cls-2" d="M65.35,116.47c2.97-.15,4.97-3.24,4.53-6.13-3.02.21-5.05,3.18-4.53,6.13Z"/>
    <path class="cls-2" d="M63.94,88.81c-1.76-1.31-4.38-2.11-6.36-.76-1.53,1.04-.61,1.64.74,2.23,1.88.82,4.91.74,5.62-1.47Z"/>
    <path class="cls-2" d="M68.88,82.53c-2.05-.12-3.7,5.1-1.84,6.5,1.96-.77,2.95-2.55,2.76-4.65-.04-.45-.39-1.82-.92-1.85Z"/>
    <path class="cls-2" d="M64.92,88.09c.98-2.56.18-6.09-2.83-6.58-1.25,2.44.07,6.01,2.83,6.58Z"/>
    <path class="cls-2" d="M75.07,70.49c-1.39-.46-2.66-.39-3.94.31-.37.2-1.71,1.13-1.5,1.58,1.76,1.17,3.67,1.45,5.56.42,1.58-.86,1.8-1.67-.13-2.3Z"/>
    <path class="cls-2" d="M74.94,69.57c.02-1.91-1.41-3.82-3.29-4.33-2.13-.57-3.18-.43-2.06,1.89.97,2.01,3.28,2.6,5.35,2.43Z"/>
    <path class="cls-2" d="M86.42,58.3l.21.03c2.2,1.98,2.41,5.38.25,7.49-2.37-1.9-2.65-5.36-.46-7.52Z"/>
    <path class="cls-2" d="M142.46,106.32c-1.41.35-2.26,1.86-3.59,2.53-1.64.83-5.91,2.1-7.44.9-.69-.54-.59-1.57-.89-2.31-.99-2.44-2.34-4.58-2.05-7.37.23-1.3,1.12-3.51,1.14-4.73,0-.29-.02-.62-.37-.37-.12.08-.75,2.25-.89,2.68-1.5,4.64-.2,5.93,1.08,10.05.21.66.83,3.16.77,3.71-.16,1.52-2.52,3.73-3.97,4.17-4.23,1.27-10.77-2.04-15.98-.83-1.46.34-5.06,2.08-5.94,3.24-.65.86-.77,2.74-2.32,2.5,1.17-1.44.55-3.02.67-4.48.18-2.01.6-4.24,1.17-6.29.13-1.05.41-2.07.81-3.07.65-1.64,1.87-2.96,2.52-4.59.05-.12.11-.23.19-.31.49-.87,1.52-1.91,2-2.98.72-1.59,1.04-3.4,1.87-4.99.87-1.66,2.19-2.42,3.27-3.85,2.67-3.52,2.26-8.83,6.43-11.1,2.86-1.56,5.04-.39,8.01-.19-4.39-2.39-9.27-1.53-12.08,2.69-1.26,1.9-2.64,4.32-3.85,6.32-.78,1.29-1.72,5.2-4.01,2.77-.6-.64-1.47-5.32-1.57-6.43-.31-3.18.47-3.94,1.07-6.72.25-1.18.83-4.15-.49-4.82-.17-.09-.83-.22-.89-.18-.14.1.39,2.69.34,3.35-.16,2.16-1.07,4.47-1.2,6.82-.19,3.23,1.03,6.88.79,10.16-.38,5.21-3.51,8.43-5.54,12.79-.29.62-.73,2.76-1.35,2.68-.4-.05-1.32-7.04-1.52-7.95-1.05-4.72-2.43-10.38-4.23-14.83-1.22-3.02-3.41-6.36-4.4-9.34-.89-2.66-1.55-5.51-2.46-8.18-.13-.4-.62-1.99-1.16-1.38-.41.46.38,4.3.58,5.14.15.66,1.14,1.81.15,2.1-.21.06-2.15.16-2.49.14-.66-.03-1.62-.15-2.25-.33-2.03-.59-4.11-2.84-6.24-3.26l5.7,4.21c2.85,1.52,5.42,1.11,7.26,4.26,1.51,2.59,2.25,5.84,3.93,8.39.19.98.3,1.85-.29,2.72-1.94,2.88-6.56-.65-8.83-1.17-.34-.08-1.48-.32-1.43.32.27.43.72.61,1.15.82,1.43.71,4.88,2.09,6.39,2.5,2.22.6,2.98-.58,4.45,1.9,2.7,4.57,2.73,15.52,3.25,20.93l-1.61-2.14c-3.41-3.31-8.41-3.55-12.65-5.28-5.75-2.34-7.92-6.65-11.82-11.07-1.94-2.21-4.31-4.06-5.93-6.54-.17-.26-.5-1.22-.56-1.26-.63-.31-.69.27-.6.82.35,2.21,6.02,7.49,7.68,9.51,1.63,1.97,3.17,4.82,4.86,6.59,1.52,1.58,3.38,1.59.33,3.45-2.82,1.72-4.61.83-7.48.16-.23-.05-.75-.27-.75.1,2.37,1.43,5.57,1.99,8.32,1.62,1.43-.19,2.91-.93,4.51-.91,2.37.03,8.66,2.15,10.52,3.61,2.38,1.88,4.16,6.73,4.23,9.84.58,4.06.31,8.36-.99,12.29-.77,5.59-2.94,13.56-6.23,18.12,3.78.55,7.57,1.07,11.35,1.6-.22-3.32.21-7.46.71-10.05,0-.93-.04-1.86.03-2.79.14-1.8.25-3.61.38-5.41.2-2.87.46-5.73.91-8.57,0-1.23.1-2.5.81-4.28,1.75-4.4,4.27-6.67,9.15-6.92,8.36-.43,6.71,4.76,12.53,7.43,1.55.71,4.75,1.61,6.44,1.91.39.07,3.16.21,3.26.08,1.14-1.32-2.81-.88-3.17-.9-2.63-.19-6.63-2.1-8.05-4.42-.45-.73-1.54-3.21-.49-3.69.76-.35,2.38-.45,3.4-.85,2.71-1.07,2.67-2.59,4.51-3.92,1.95-1.4,5.5-2.22,7.8-3.72.44-.29,3.61-2.74,3.35-3.11Z"/>
    <path class="cls-2" d="M71.74,102.33c.44-.22,1.36.73,1.63,1.08,1.27,1.71,1.61,4.86-.12,6.37-1.98-1.36-2.77-3.62-2.18-5.97.06-.25.57-1.43.67-1.47Z"/>
    <path class="cls-2" d="M133.38,96.92c.92-.02,4.22.46,3.17,1.78-.83,1.03-2.87,1.91-4.19,1.85-.78-.04-3.42-.55-2.69-1.62.67-.98,2.51-1.99,3.71-2.01Z"/>
    <path class="cls-2" d="M105.73,78.66c-2.96.38-6.14-2.14-6.04-5.16,3.01-.23,5.84,2.11,6.04,5.16Z"/>
    <path class="cls-2" d="M73.03,86.53c.5,2.19.15,4.23-1.52,5.84-.32.31-1.27,1.11-1.7.91-1.7-2.63.26-6.34,3.22-6.74Z"/>
    <path class="cls-2" d="M73.68,111.97c.26,2.92-1.67,5.97-4.75,6.1-.35-2.92,1.65-6.2,4.75-6.1Z"/>
    <path class="cls-2" d="M126.46,104.96c-1.32.31-2.68-.2-3.69-1.03-.8-.66-3.17-4-1.2-3.95,2.72.08,5.12,2.17,4.89,4.98Z"/>
    <path class="cls-2" d="M128.55,85.49c-3.1-.51-4.36-3.69-3.71-6.52,3.2.21,4.55,3.72,3.71,6.52Z"/>
    <path class="cls-2" d="M120.88,79.87c2.19.39,4.28,2.85,4.3,5.06.01,1.5-.19,1.67-1.48,1.1-2.32-1.02-3.56-3.74-2.82-6.16Z"/>
    <path class="cls-2" d="M63.94,88.81c-.71,2.21-3.74,2.29-5.62,1.47-1.35-.59-2.27-1.18-.74-2.23,1.98-1.35,4.6-.55,6.36.76Z"/>
    <path class="cls-2" d="M139.11,119.43c-.18,2.17-1.19,4.2-3.22,5.17-1.67.8-2.08.44-1.79-1.32s1-2.74,2.57-3.51c.4-.2,2.21-.8,2.44-.34Z"/>
    <path class="cls-2" d="M114.44,67.41c-.54,2.92-3.19,4.95-6.17,4.19.23-2.99,3.29-5.06,6.17-4.19Z"/>
    <path class="cls-2" d="M69.88,110.34c.44,2.89-1.56,5.97-4.53,6.13-.52-2.95,1.51-5.92,4.53-6.13Z"/>
    <path class="cls-2" d="M114.15,79.29c-.58,2.84-3.21,4.92-6.16,4.19.26-3.04,3.22-5.16,6.16-4.19Z"/>
    <path class="cls-2" d="M134.25,92.58c.88-.02,3.73.42,3.06,1.62-.96,1.7-3.69,2.33-5.48,1.75-1.25-.41-1.6-.8-.7-1.83.7-.8,2.04-1.52,3.12-1.54Z"/>
    <path class="cls-2" d="M124.58,92.53c-.45-.76-1.48-3.45-.11-3.46,1.96,0,3.86,2.05,4.23,3.89.26,1.29.1,1.79-1.24,1.51-1.04-.22-2.33-1.02-2.88-1.95Z"/>
    <path class="cls-2" d="M99.24,79.4c1.91-.31,4.19.67,5.17,2.36.34.59,1.05,2.13-.02,2.22-2.65.23-5.48-1.72-5.15-4.58Z"/>
    <path class="cls-2" d="M78.66,64.59c.16-1.59,3.18-1.36,4.31-1.06,1.28.34,4.04,2.39,1.81,3.2s-4.56-.62-6.12-2.15c-.04.44.21.96.19,1.43-.03.98-.29,2.34-1.1,2.99-.65.52-.82.04-1.29-.48-1.2-1.33-1.36-3.01-.87-4.7.91-3.11,2.07-.21,3.06.76Z"/>
    <path class="cls-2" d="M83.31,87.42c-2.3-.58-3.05-3.1-2.33-5.28.73-2.23,1.76-1.91,2.73-.07.89,1.69.53,3.76-.4,5.35Z"/>
    <path class="cls-2" d="M60.78,108.97c1.19-1.45,3.62-2.16,5.38-1.5.46.17,2.28.99,2.18,1.5-1.98,2.21-5.47,2.02-7.56,0Z"/>
    <path class="cls-2" d="M85.69,81.62c2.14.69,2.91,3.93,2.25,5.93-.71,2.15-1.66,1.48-2.49-.11-1.01-1.94-.7-3.92.24-5.82Z"/>
    <path class="cls-2" d="M132.56,117.87c.52,1.33.54,2.83-.13,4.1-.5.94-3.26,3.67-3.64,1.81-.51-2.52,1.42-5.16,3.77-5.91Z"/>
    <path class="cls-2" d="M121.22,94.62c2.24-.34,4.59,1.06,5.37,3.16.72,1.94.22,2.15-1.72,1.64s-3.65-2.89-3.64-4.8Z"/>
    <path class="cls-2" d="M139.24,110.84c1.89.68,3.47,2.65,3.43,4.68-.01.63-.14,2.27-1.08,1.81-2.43-1.21-3.99-4.02-2.36-6.49Z"/>
    <path class="cls-2" d="M74.94,69.57c-2.07.17-4.38-.43-5.35-2.43-1.13-2.33-.07-2.47,2.06-1.89,1.88.51,3.31,2.42,3.29,4.33Z"/>
    <path class="cls-2" d="M143.34,124.56c-.67,2.3-3.34,3.2-5.57,2.54-1.8-.52-1.75-1.26-.34-2.3,1.72-1.26,4.1-1.3,5.92-.25Z"/>
    <path class="cls-2" d="M80.84,89.46c1.2-.02,2.47.35,3.41,1.09,1.04.83.44,1.19-.6,1.71-1.35.68-3.08.77-4.5.2-.39-.15-1.6-1.05-1.45-1.48.21-.63,2.42-1.51,3.14-1.53Z"/>
    <path class="cls-2" d="M149.24,99.46c-.13,1.57-.42,2.91-1.5,4.1-.66.73-3.55,2.65-3.5.8.08-2.79,2.21-5.02,5-4.9Z"/>
    <path class="cls-2" d="M121.38,76.54c-2.98-.08-5.21-2.53-5.14-5.46,2.9.07,5.78,2.33,5.14,5.46Z"/>
    <path class="cls-2" d="M130.14,104.69c.3-2.96,4.61-4.41,6.76-2.49-1.3,2.72-4.02,3.26-6.76,2.49Z"/>
    <path class="cls-2" d="M65.22,93.05c-1.15,2.87-5.22,2.56-7.34.79-.14-.28,1.42-1.4,1.73-1.54,1.8-.81,4.02-.33,5.61.75Z"/>
    <path class="cls-2" d="M136.09,75.17c-1.04,2.82-4.44,3.71-7.02,2.5,1.21-2.77,4.31-3.98,7.02-2.5Z"/>
    <path class="cls-2" d="M128.23,134.42c-1.23-.73-2.06-2.49-2.08-3.92-.04-2.59,1.86-5.26,3.01-1.49.61,2,.04,3.64-.93,5.4Z"/>
    <path class="cls-2" d="M76.06,89.99c.67.04.79,2.23.73,2.76-.2,1.68-1.64,3.56-3.39,3.61-1.56-1.56.73-6.49,2.66-6.37Z"/>
    <path class="cls-2" d="M123.01,69.33c2.38.67,2.21,7.19.36,7.26s-2.42-6.38-.36-7.26Z"/>
    <path class="cls-2" d="M106.47,69.97c-1.06-1.44-1.35-3.52-.48-5.1.94-1.71,1.9-.63,2.56.7.76,1.54.34,4.5-1.3,5.22-.19-.32-.57-.53-.78-.82Z"/>
    <path class="cls-2" d="M72.12,101.09c.15.28-1.33,1.31-1.6,1.46-1.98,1.05-4.13.72-5.76-.78,1.29-2.64,5.28-2.12,7.36-.68Z"/>
    <path class="cls-2" d="M134.52,84.05c-2.68.28-5.62-1.86-5.48-4.65,2.78-.33,6,1.54,5.48,4.65Z"/>
    <path class="cls-2" d="M64.92,88.09c-2.75-.57-4.08-4.14-2.83-6.58,3.01.49,3.81,4.03,2.83,6.58Z"/>
    <path class="cls-2" d="M147.44,105.42c1.67-.03,3.32.95,4.04,2.48.66,1.41-1.58,1.47-2.53,1.33-2.44-.37-5.85-3.73-1.51-3.81Z"/>
    <path class="cls-2" d="M110.46,99.51c.56-1.4,1.16-2.3,2.5-3.06.98-.56,4.7-1.36,3.76.52-1.22,2.43-3.7,3.61-6.26,2.55Z"/>
    <path class="cls-2" d="M143.45,105.41c-2.32-.55-3.89-3.99-3.35-6.15.26-1.06.77-.56,1.46-.13,2.16,1.32,2.85,4,1.89,6.29Z"/>
    <path class="cls-2" d="M147.68,112.63c-2.22.34-4.46-.69-5.43-2.74-.91-1.92-.1-2.06,1.72-1.64,1.93.45,3.76,2.35,3.71,4.38Z"/>
    <path class="cls-2" d="M93.9,62.41c-.58,2.88-3.29,4.57-6.13,3.98.38-3.01,3.2-4.91,6.13-3.98Z"/>
    <path class="cls-2" d="M113.73,102.1c.38.45.71,1,.92,1.54,1.28,3.33-2.83,1.62-3.97.2-.56-.71-1.98-3.24-.41-3.26,1.04-.01,2.77.71,3.46,1.52Z"/>
    <path class="cls-2" d="M134.7,133.9c-2.8-.8-4.43-3.68-3.71-6.52,3.05.36,4.46,3.75,3.71,6.52Z"/>
    <path class="cls-2" d="M95.53,67.12c-.22,2.04-1.8,3.86-3.83,4.22-1.62.28-2.58.23-1.78-1.66.78-1.84,3.68-3.12,5.61-2.56Z"/>
    <path class="cls-2" d="M81.41,88.85c-2.6.41-5.66-1.8-5.71-4.47,2.9-.45,5.87,1.28,5.71,4.47Z"/>
    <path class="cls-2" d="M136.58,108.82c-.11-.09-.53-1.63-.54-1.91-.03-1.46.43-3.02,1.61-3.96,2.15-1.72,2.25,1.97,1.78,3.41-.25.76-2.12,3.05-2.85,2.47Z"/>
    <path class="cls-2" d="M97.79,71.93c-.29,2.81-3.22,5.02-5.99,4.43.15-2.85,3.25-4.95,5.99-4.43Z"/>
    <path class="cls-2" d="M68.88,82.53c.53.03.88,1.4.92,1.85.19,2.09-.8,3.88-2.76,4.65-1.86-1.4-.21-6.62,1.84-6.5Z"/>
    <path class="cls-2" d="M87.94,92.18c.05,2.47-1.94,4.92-4.51,4.82-1.02-.04-.91-.54-.67-1.42.56-2.11,3-3.83,5.18-3.4Z"/>
    <path class="cls-2" d="M78.33,73.91c-.13,2.78-2.55,5.15-5.39,4.73-.01-2.94,2.44-5.32,5.39-4.73Z"/>
    <path class="cls-2" d="M129.16,69.87c.13.1.66,1.87.68,2.18.06,1.13-.18,2.4-.94,3.27-2.05,2.36-2.8-1.11-2.45-2.8.18-.87,1.7-3.46,2.71-2.65Z"/>
    <path class="cls-2" d="M139.65,133.58c-2.94-.25-4.36-3.24-3.8-5.9,3.05.1,4.66,3.11,3.8,5.9Z"/>
    <path class="cls-2" d="M69.63,72.38c-.21-.45,1.13-1.38,1.5-1.58,1.28-.7,2.55-.77,3.94-.31,1.93.63,1.71,1.44.13,2.3-1.89,1.03-3.81.76-5.56-.42Z"/>
    <path class="cls-2" d="M76.36,101.3c-.46-.44.03-3.28.31-3.96.39-.94,2.63-3.44,3.12-1.82.53,1.75-.21,3.58-1.48,4.8-.3.29-1.6,1.31-1.96.98Z"/>
    <path class="cls-2" d="M102.25,68.83c1.06.01,1.87.26,2.74.84,3.38,2.25-1.57,3.19-3.94,1.8-2.35-1.37-1.02-2.67,1.19-2.64Z"/>
    <path class="cls-2" d="M65.19,95.84c.66.02,3.55.76,2.9,1.66-1.07,1.49-3.85,1.57-5.44,1.05-3.22-1.05.83-2.76,2.54-2.71Z"/>
  </g>
</svg>