<svg width="38" height="56" viewBox="0 0 38 56" fill="none" xmlns="http://www.w3.org/2000/svg">
<path d="M12.9384 45.4186C12.5967 45.4186 12.3129 45.6342 12.2077 45.9285L10.7149 49.7079L10.5835 50.139L10.4626 49.7027L9.30615 46.0231C9.30615 46.0231 9.29563 45.9969 9.29037 45.9916V45.9811C9.17998 45.671 8.89088 45.4554 8.54921 45.4554H6.68315C6.26263 45.4817 5.93146 45.8181 5.93146 46.2439C5.93146 46.3543 5.98403 46.5067 6.02083 46.6487L6.26262 47.4161L5.34799 49.7185L5.20081 50.1442L5.08516 49.7132L3.93925 46.0284C3.93925 46.0284 3.92348 46.0021 3.92348 45.9969V45.9863C3.81835 45.6762 3.51873 45.4607 3.18231 45.4607H1.31625C0.900988 45.487 0.564575 45.8234 0.564575 46.2492C0.564575 46.3596 0.61188 46.512 0.659188 46.6539L3.45039 54.9802C3.5345 55.3219 3.84989 55.569 4.20733 55.569C4.56477 55.569 4.85913 55.3429 4.95375 55.017L6.90917 50.0812L7.0511 49.6396L7.16674 50.0759L8.81203 54.975C8.89614 55.3166 9.20101 55.5637 9.57422 55.5637C9.94744 55.5637 10.2313 55.3272 10.3312 54.9907L13.6375 46.554C13.6848 46.4489 13.7163 46.3333 13.7163 46.2124C13.7163 45.7708 13.3589 45.4186 12.9279 45.4186" fill="#1D1D1B"/>
<path d="M26.8576 45.4186C26.5159 45.4186 26.2268 45.6342 26.1164 45.9285L24.6288 49.7079L24.4869 50.139L24.3765 49.7027L23.2148 46.0231C23.2148 46.0231 23.2148 45.9969 23.2148 45.9916V45.9811C23.1044 45.671 22.8101 45.4554 22.4684 45.4554H20.6023C20.1818 45.4817 19.8559 45.8181 19.8559 46.2439C19.8559 46.3543 19.898 46.5067 19.9453 46.6487L20.1923 47.4161L19.2724 49.7185L19.1253 50.1442L19.0149 49.7132L17.8637 46.0284C17.8637 46.0284 17.8532 46.0021 17.8427 45.9969V45.9863C17.7375 45.6762 17.4484 45.4607 17.112 45.4607H15.2407C14.8149 45.487 14.4838 45.8234 14.4838 46.2492C14.4838 46.3596 14.5363 46.512 14.5731 46.6539L17.3748 54.9802C17.4589 55.3219 17.7638 55.569 18.1318 55.569C18.4787 55.569 18.7783 55.3429 18.8782 55.017L20.8336 50.0812L20.9703 49.6396L21.0964 50.0759L22.7365 54.975C22.8258 55.3166 23.136 55.5637 23.4987 55.5637C23.8614 55.5637 24.161 55.3272 24.2556 54.9907L27.5672 46.554C27.6145 46.4489 27.646 46.3333 27.646 46.2124C27.646 45.7708 27.2886 45.4186 26.8576 45.4186Z" fill="#1D1D1B"/>
<path d="M35.8935 45.4344H29.3702C28.9917 45.4344 28.6921 45.7393 28.6921 46.1177V54.7857C28.7079 55.1747 29.0338 55.4953 29.4228 55.4953H31.2731C31.6726 55.4848 31.988 55.1694 31.9985 54.7647V50.7172C31.9985 50.7172 34.6477 50.7119 34.6583 50.7119C35.0472 50.7119 35.3626 50.3913 35.3626 49.9918C35.3626 49.5923 35.042 49.2821 34.6425 49.2821H32.0037V46.9693H35.9408C36.3456 46.9535 36.6715 46.6171 36.6715 46.2018C36.6715 45.7866 36.3246 45.4396 35.9041 45.4396" fill="#1D1D1B"/>
<path d="M25.7747 17.8115C26.9627 19.1414 27.0888 23.0995 30.0745 21.5226C31.867 20.5764 31.846 16.5867 29.449 15.1464C27.5146 14.0005 26.4528 15.5459 25.7537 17.4383C25.7011 17.5854 25.6958 17.7379 25.7747 17.8115Z" fill="#1D1D1B"/>
<path d="M21.1384 17.1807C19.8926 18.2162 19.0358 21.0495 16.7387 20.0875C14.8832 19.1466 14.7044 15.4723 17.9004 13.7745C20.1292 12.7494 21.2593 14.7785 21.2698 16.9336C21.2698 17.0072 21.1962 17.1229 21.1331 17.1859" fill="#1D1D1B"/>
<path d="M24.2188 24.4136C25.4488 24.2875 25.1755 23.1468 24.2398 22.8577C23.4093 22.6106 22.1425 22.4477 21.2489 22.4635C19.6667 22.5002 19.7035 23.7092 20.5288 23.9142C21.1543 24.1245 21.5538 24.2034 22.0899 24.8972C22.5788 25.8539 22.3633 24.6134 24.2188 24.4136Z" fill="#1D1D1B"/>
<path d="M30.0325 3.96059C31.5779 1.3849 34.2692 1.88427 35.6201 3.16685C37.1025 4.55983 37.3442 6.17358 36.7765 7.30898C36.0038 8.82811 34.0221 10.6784 32.7343 8.89119C32.1666 8.10271 30.9576 7.15654 30.2953 6.88846C29.2808 6.46268 29.0915 5.54805 30.0377 3.96584" fill="#1D1D1B"/>
<path d="M24.3239 27.0997C23.6511 28.8817 20.1503 28.2719 20.0399 26.5425C20.0399 26.4742 20.1345 26.4899 20.1713 26.5005C21.7325 26.8632 23.2148 27.0366 24.2188 27.0314C24.2556 27.0314 24.3397 27.0103 24.3239 27.0997ZM36.1931 15.3251C36.0512 14.8678 35.8252 14.8941 35.8357 15.2726C35.9618 19.9666 33.1549 24.9971 27.1572 25.0339C25.6223 25.0339 26.0849 27.4939 23.2831 26.2587C21.2646 24.8972 20.1082 27.578 18.6732 24.6922C18.3631 23.8617 17.89 23.5305 17.275 23.3781C11.3509 21.9115 9.45852 13.7534 14.6835 7.16703C15.719 7.78204 16.0975 7.87666 17.1961 6.86741C17.7743 6.33651 18.7363 5.74778 19.2619 5.55854C20.5182 5.0802 21.1963 4.54404 20.1082 2.14707C18.7152 -0.959524 15.861 -0.0816879 14.5573 0.990639C13.0855 2.20489 12.05 4.16557 13.9476 6.46792C8.63851 10.0476 7.72914 14.4473 7.85004 18.2688C7.9762 22.3373 6.93541 21.9904 8.23376 26.1272C8.34941 26.4899 8.09184 26.4794 7.89735 26.3638C2.36225 22.8209 -0.628705 12.0188 7.99722 6.06317C8.19171 5.8897 8.11286 5.66367 7.40323 6.07894C-0.0610046 10.0266 -0.744347 17.6748 0.490932 22.8262C1.09543 25.323 0.175536 25.7803 1.14273 29.0604C3.36098 35.8938 5.25858 36.43 7.93415 36.6297C12.8017 36.6297 9.50058 33.9437 9.6793 30.569C9.6793 30.3745 9.9211 30.2746 10.0578 30.6794C12.7386 36.6928 14.6309 42.1596 21.6747 41.6497C25.7537 41.1188 23.4934 39.0951 23.2411 37.9439C20.2396 27.9933 27.5199 25.6437 25.4593 35.3472C24.0979 40.9085 28.3977 40.3514 31.4255 38.3539C34.5478 36.3038 38.4534 22.7736 36.1931 15.3251Z" fill="#1D1D1B"/>
<path d="M7.38748 37.5969C6.52541 37.5969 5.82104 38.3013 5.82104 39.1581C5.82104 40.0149 6.52541 40.7245 7.38748 40.7245C8.24955 40.7245 8.94341 40.0202 8.94341 39.1581C8.94341 38.296 8.24955 37.5969 7.38748 37.5969ZM8.69109 39.1581C8.69109 39.8782 8.10237 40.4617 7.38748 40.4617C6.6726 40.4617 6.08387 39.8782 6.08387 39.1581C6.08387 38.438 6.66734 37.8597 7.38748 37.8597C8.10762 37.8597 8.69109 38.4432 8.69109 39.1581Z" fill="#1D1D1B"/>
<path d="M7.83426 39.4052C7.80273 39.5944 7.64503 39.7258 7.42951 39.7258C7.12989 39.7258 6.94066 39.4577 6.94066 39.1581C6.94066 38.8585 7.11412 38.6062 7.42951 38.6062C7.63977 38.6062 7.79747 38.7271 7.83952 38.9163H8.05504C8.01824 38.5694 7.7449 38.3749 7.42426 38.3749C6.95643 38.3749 6.6936 38.7165 6.6936 39.1581C6.6936 39.5996 6.98271 39.9466 7.43476 39.9466C7.75016 39.9466 8.00773 39.7416 8.07081 39.4052H7.83952H7.83426Z" fill="#1D1D1B"/>
<path d="M34.8528 41.329C33.9855 41.329 33.2916 42.0282 33.2916 42.8902C33.2916 43.7523 33.9855 44.4514 34.8528 44.4514C35.7201 44.4514 36.414 43.7575 36.414 42.8902C36.414 42.0229 35.7149 41.329 34.8528 41.329ZM36.1564 42.8902C36.1564 43.6156 35.5677 44.1938 34.8528 44.1938C34.1379 44.1938 33.5439 43.6104 33.5439 42.8902C33.5439 42.1701 34.1274 41.5919 34.8528 41.5919C35.5782 41.5919 36.1564 42.1701 36.1564 42.8902Z" fill="#1D1D1B"/>
<path d="M34.5793 42.8009V42.3436H34.8842C35.0366 42.3436 35.2048 42.3856 35.2048 42.5644C35.2048 42.7904 35.0366 42.8009 34.8421 42.8009H34.5793ZM34.5793 42.9954H34.8369L35.2311 43.6314H35.4729L35.0524 42.9796C35.2732 42.9533 35.4361 42.8377 35.4361 42.5801C35.4361 42.2858 35.2679 42.1596 34.921 42.1596H34.3533V43.6314H34.5846V42.9954H34.5793Z" fill="#1D1D1B"/>
</svg>
