<svg width="76" height="24" viewBox="0 0 76 24" fill="none" xmlns="http://www.w3.org/2000/svg">
<rect x="0.5" y="0.5" width="75" height="23" rx="11.5" stroke="#017A3F"/>
<path d="M16.3767 8.26563H15.6251C15.5564 8.26563 15.5001 8.32188 15.5001 8.39063V12.6922C15.5001 12.7328 15.5189 12.7703 15.5517 12.7938L18.1345 14.6797C18.1907 14.7203 18.2689 14.7094 18.3095 14.6531L18.7564 14.0438C18.7985 13.9859 18.786 13.9078 18.7298 13.8688L16.5017 12.2578V8.39063C16.5017 8.32188 16.4454 8.26563 16.3767 8.26563ZM19.811 9.44063L22.261 10.0391C22.3392 10.0578 22.4157 9.99844 22.4157 9.91875L22.4282 7.39531C22.4282 7.29063 22.3079 7.23125 22.2267 7.29688L19.7642 9.22031C19.7456 9.23471 19.7314 9.25407 19.7233 9.27616C19.7152 9.29825 19.7135 9.32218 19.7184 9.3452C19.7233 9.36821 19.7346 9.38938 19.751 9.40626C19.7674 9.42314 19.7882 9.43505 19.811 9.44063ZM22.4314 14.1453L21.5454 13.8406C21.5145 13.83 21.4807 13.832 21.4512 13.846C21.4217 13.86 21.3989 13.885 21.3876 13.9156C21.3579 13.9953 21.3267 14.0734 21.2939 14.1516C21.0157 14.8094 20.6173 15.4016 20.1079 15.9094C19.6042 16.4147 19.0072 16.8174 18.3501 17.0953C17.6694 17.3831 16.9376 17.5308 16.1985 17.5297C15.4517 17.5297 14.7282 17.3844 14.047 17.0953C13.3899 16.8174 12.7929 16.4147 12.2892 15.9094C11.7814 15.4016 11.3829 14.8094 11.1032 14.1516C10.817 13.4704 10.6703 12.7388 10.672 12C10.672 11.2531 10.8173 10.5281 11.1064 9.84688C11.3845 9.18906 11.7829 8.59688 12.2923 8.08906C12.796 7.58378 13.393 7.18103 14.0501 6.90313C14.7282 6.61406 15.4532 6.46875 16.2001 6.46875C16.947 6.46875 17.6704 6.61406 18.3517 6.90313C19.0088 7.18103 19.6058 7.58378 20.1095 8.08906C20.2689 8.25 20.4189 8.41719 20.5564 8.59375L21.4907 7.8625C20.261 6.29063 18.347 5.27969 16.197 5.28125C12.4532 5.28281 9.44698 8.32344 9.48448 12.0688C9.52198 15.7484 12.5142 18.7188 16.2001 18.7188C19.0985 18.7188 21.5673 16.8813 22.5079 14.3078C22.5314 14.2422 22.497 14.1688 22.4314 14.1453Z" fill="#017A3F"/>
<path d="M32.704 7.6V16H31V10.552H28.888V9.268C30.076 9.304 31.156 8.884 31.348 7.6H32.704ZM36.624 11.764C36.624 12.712 36.624 14.764 37.992 14.764C39.384 14.764 39.384 12.712 39.384 11.764C39.384 10.888 39.384 8.836 37.992 8.836C36.612 8.836 36.624 10.888 36.624 11.764ZM34.92 11.764C34.92 8.488 36.324 7.432 37.992 7.432C39.672 7.432 41.088 8.488 41.088 11.764C41.088 15.112 39.672 16.168 37.992 16.168C36.324 16.168 34.92 15.112 34.92 11.764ZM45.5038 16V7.432H48.1558L50.1598 13.324H50.1838L52.0798 7.432H54.7318V16H52.9678V9.928H52.9438L50.8438 16H49.3918L47.2918 9.988H47.2678V16H45.5038ZM56.3905 16V7.432H58.2745V16H56.3905ZM59.9296 16V7.432H61.8016L65.3776 13.18H65.4016V7.432H67.1656V16H65.2816L61.7176 10.264H61.6936V16H59.9296Z" fill="#017A3F"/>
</svg>
